<svg width="320" height="35" viewBox="0 0 320 35" fill="none" xmlns="http://www.w3.org/2000/svg">
<path fill-rule="evenodd" clip-rule="evenodd" d="M20.4655 20.7989C24.2433 17.0212 30.405 17.0212 34.1803 20.7989C34.3507 20.9694 34.5112 21.1449 34.6666 21.3229L29.2845 26.705C28.931 25.978 28.184 25.4767 27.3217 25.4767C26.1209 25.4767 25.1382 26.4568 25.1407 27.6576C25.1407 28.5174 25.6421 29.2644 26.3691 29.6179L20.987 35C20.809 34.8446 20.6335 34.6841 20.463 34.5137C16.6853 30.7359 16.6853 24.5742 20.463 20.7989H20.4655ZM14.201 14.3113C17.9788 10.5336 17.9788 4.37187 14.201 0.594111C14.0306 0.423649 13.8551 0.263213 13.6771 0.107791L8.29501 5.4899C9.02199 5.84336 9.52335 6.59039 9.52335 7.45273C9.52335 8.65349 8.54318 9.63615 7.34242 9.63365C6.48259 9.63365 5.73557 9.13229 5.38211 8.40531L0 13.7874C0.155422 13.9654 0.315858 14.1409 0.486321 14.3113C4.26407 18.0891 10.4258 18.0891 14.201 14.3113ZM20.5758 14.201C16.7981 10.4233 16.7981 4.26157 20.5758 0.486321C20.7463 0.315858 20.9218 0.155422 21.0998 0L26.4819 5.38211C25.7549 5.73808 25.2535 6.48259 25.2535 7.34493C25.2535 8.54569 26.2337 9.52836 27.4345 9.52586C28.2943 9.52586 29.0413 9.0245 29.3973 8.29752L34.7794 13.6796C34.624 13.8576 34.4635 14.0331 34.2931 14.2036C30.5153 17.9813 24.3536 17.9813 20.5784 14.2036L20.5758 14.201ZM14.2562 20.6335C10.4784 16.8558 4.31672 16.8558 0.541471 20.6335C0.371008 20.804 0.210572 20.9795 0.05515 21.1574L5.43726 26.5395C5.79072 25.8126 6.53774 25.3112 7.39757 25.3112C8.60084 25.3112 9.581 26.2914 9.5785 27.4946C9.5785 28.3545 9.07714 29.1015 8.35016 29.4575L13.7323 34.8396C13.9103 34.6866 14.0857 34.5237 14.2562 34.3532C18.0339 30.5755 18.0339 24.4138 14.2562 20.636V20.6335Z" fill="white"/>
<path d="M46.3108 24.3212H44.7767V12.1406H40.7031V10.9724H50.6025V12.1406H46.3108V24.3212ZM49.8555 24.3212H48.2386L53.909 10.8972H55.754L61.2589 24.3212H59.6195L57.1202 18.3976H52.262L49.8605 24.3212H49.8555ZM56.8219 17.2846L54.7863 12.3662L52.6004 17.2369L56.8244 17.2846H56.8219ZM63.9061 24.1758H62.3719V10.6816H63.9061V24.1758ZM71.048 24.0555H69.5138V11.8724H65.2723V10.7769H75.4349V11.8724H71.0455V24.0555H71.048ZM78.413 11.9551V24.1457H76.9014V10.8195H81.0953C82.0178 10.8195 82.7573 10.8897 83.3213 11.0276C83.8803 11.1655 84.497 11.5315 84.878 11.9075C85.2591 12.286 85.8381 13.7951 85.7905 14.4469C85.5198 18.1093 82.6495 17.8636 81.6066 18.0592L85.5248 24.1407H83.7023L79.1199 16.9211H80.5989C81.5866 16.9211 82.7999 16.901 83.201 16.6253C84.5797 15.6852 84.7251 13.1458 82.9102 12.1682C82.5166 11.9551 81.7821 11.9526 80.6741 11.9526H78.413V11.9551ZM87.2971 24.1407H85.6802L91.0999 10.812H92.9449L98.6128 24.1407H96.9207L94.4164 18.1218L89.646 18.0692L87.2996 24.1407H87.2971ZM94.088 17.0364L91.9773 12.281L90.017 17.089L94.088 17.0364Z" fill="white" stroke="white" stroke-width="0.383541"/>
<path d="M123.674 12.976H138.326V21.706H136.562V14.65H125.366V21.796H123.674V12.976ZM124.556 19.042H137.57V20.716H124.556V19.042ZM130.064 9.808H131.846V26.494H130.064V9.808ZM150.136 10.06H151.99V24.28C151.99 24.856 151.912 25.282 151.756 25.558C151.612 25.834 151.354 26.044 150.982 26.188C150.622 26.32 150.142 26.404 149.542 26.44C148.942 26.488 148.216 26.512 147.364 26.512C147.328 26.344 147.268 26.152 147.184 25.936C147.112 25.732 147.028 25.522 146.932 25.306C146.848 25.09 146.758 24.898 146.662 24.73C147.094 24.754 147.508 24.772 147.904 24.784C148.312 24.784 148.666 24.784 148.966 24.784C149.278 24.772 149.5 24.766 149.632 24.766C149.812 24.754 149.938 24.718 150.01 24.658C150.094 24.586 150.136 24.46 150.136 24.28V10.06ZM154.474 14.704L156.13 14.092C156.646 14.932 157.138 15.838 157.606 16.81C158.086 17.77 158.506 18.712 158.866 19.636C159.238 20.56 159.496 21.388 159.64 22.12L157.786 22.858C157.654 22.138 157.42 21.31 157.084 20.374C156.76 19.438 156.37 18.478 155.914 17.494C155.458 16.498 154.978 15.568 154.474 14.704ZM145.42 14.236L147.346 14.56C147.154 15.448 146.908 16.384 146.608 17.368C146.308 18.352 145.954 19.294 145.546 20.194C145.138 21.082 144.67 21.862 144.142 22.534C144.01 22.438 143.842 22.336 143.638 22.228C143.446 22.108 143.248 22 143.044 21.904C142.84 21.796 142.66 21.706 142.504 21.634C143.02 21.01 143.47 20.278 143.854 19.438C144.238 18.586 144.562 17.704 144.826 16.792C145.09 15.88 145.288 15.028 145.42 14.236ZM171.09 18.808H177.102V20.338H171.09V18.808ZM163.386 24.46H178.758V26.008H163.386V24.46ZM170.244 14.848H172.026V25.36H170.244V14.848ZM165.546 17.944H167.202V25.234H165.546V17.944ZM170.856 9.646L172.386 10.384C171.702 11.38 170.898 12.322 169.974 13.21C169.05 14.098 168.048 14.902 166.968 15.622C165.9 16.33 164.796 16.942 163.656 17.458C163.524 17.23 163.35 16.984 163.134 16.72C162.918 16.444 162.702 16.21 162.486 16.018C163.578 15.574 164.652 15.034 165.708 14.398C166.764 13.75 167.736 13.024 168.624 12.22C169.512 11.404 170.256 10.546 170.856 9.646ZM171.756 10.69C172.548 11.602 173.364 12.388 174.204 13.048C175.056 13.696 175.932 14.254 176.832 14.722C177.744 15.19 178.668 15.616 179.604 16C179.4 16.18 179.19 16.408 178.974 16.684C178.77 16.948 178.614 17.206 178.506 17.458C177.546 17.014 176.61 16.522 175.698 15.982C174.786 15.442 173.886 14.8 172.998 14.056C172.11 13.312 171.234 12.412 170.37 11.356L171.756 10.69ZM183.08 20.878H198.974V22.3H183.08V20.878ZM183.152 12.904H198.92V14.272H183.152V12.904ZM183.872 16.09H198.254V17.422H183.872V16.09ZM184.772 18.502H197.39V19.78H184.772V18.502ZM190.136 16.702H191.81V26.512H190.136V16.702ZM188.534 9.79H190.136V13.57H188.534V9.79ZM191.918 9.79H193.538V13.48H191.918V9.79ZM196.076 9.988L197.84 10.438C197.564 10.918 197.282 11.398 196.994 11.878C196.706 12.358 196.436 12.772 196.184 13.12L194.798 12.688C194.954 12.436 195.11 12.154 195.266 11.842C195.434 11.518 195.584 11.194 195.716 10.87C195.86 10.546 195.98 10.252 196.076 9.988ZM193.808 14.164L195.59 14.632C195.338 14.956 195.092 15.268 194.852 15.568C194.612 15.856 194.39 16.108 194.186 16.324L192.746 15.892C192.926 15.64 193.118 15.352 193.322 15.028C193.526 14.704 193.688 14.416 193.808 14.164ZM184.538 10.438L185.996 9.934C186.296 10.33 186.584 10.774 186.86 11.266C187.136 11.758 187.34 12.19 187.472 12.562L185.942 13.12C185.822 12.76 185.63 12.328 185.366 11.824C185.102 11.32 184.826 10.858 184.538 10.438ZM186.716 14.524L188.318 14.146C188.51 14.41 188.69 14.704 188.858 15.028C189.038 15.352 189.17 15.634 189.254 15.874L187.598 16.288C187.538 16.048 187.424 15.76 187.256 15.424C187.088 15.088 186.908 14.788 186.716 14.524ZM188.21 23.056L189.452 23.65C189.032 23.974 188.516 24.292 187.904 24.604C187.292 24.904 186.644 25.174 185.96 25.414C185.288 25.666 184.64 25.858 184.016 25.99C183.908 25.798 183.752 25.582 183.548 25.342C183.356 25.102 183.176 24.904 183.008 24.748C183.62 24.652 184.256 24.52 184.916 24.352C185.576 24.184 186.194 23.986 186.77 23.758C187.346 23.53 187.826 23.296 188.21 23.056ZM192.818 23.83L193.898 22.966C194.438 23.146 195.02 23.362 195.644 23.614C196.28 23.854 196.886 24.094 197.462 24.334C198.05 24.574 198.542 24.79 198.938 24.982L197.804 25.972C197.42 25.78 196.94 25.552 196.364 25.288C195.8 25.036 195.2 24.784 194.564 24.532C193.94 24.268 193.358 24.034 192.818 23.83ZM213.538 13.264H219.37V14.776H213.538V13.264ZM214.06 9.79L215.5 10.06C215.296 11.176 215.044 12.28 214.744 13.372C214.456 14.464 214.132 15.496 213.772 16.468C213.412 17.44 213.016 18.298 212.584 19.042C212.512 18.958 212.404 18.85 212.26 18.718C212.128 18.574 211.984 18.436 211.828 18.304C211.684 18.172 211.558 18.064 211.45 17.98C211.858 17.308 212.224 16.534 212.548 15.658C212.884 14.782 213.178 13.84 213.43 12.832C213.682 11.824 213.892 10.81 214.06 9.79ZM216.634 14.218L218.092 14.344C217.876 16.396 217.516 18.202 217.012 19.762C216.52 21.31 215.824 22.642 214.924 23.758C214.024 24.874 212.842 25.804 211.378 26.548C211.33 26.44 211.252 26.302 211.144 26.134C211.048 25.978 210.94 25.816 210.82 25.648C210.712 25.492 210.616 25.366 210.532 25.27C211.9 24.634 212.998 23.818 213.826 22.822C214.654 21.814 215.284 20.596 215.716 19.168C216.148 17.74 216.454 16.09 216.634 14.218ZM214.294 14.722C214.522 16.282 214.846 17.746 215.266 19.114C215.686 20.482 216.244 21.688 216.94 22.732C217.636 23.764 218.5 24.568 219.532 25.144C219.424 25.24 219.298 25.36 219.154 25.504C219.01 25.66 218.878 25.822 218.758 25.99C218.638 26.158 218.536 26.314 218.452 26.458C217.372 25.774 216.478 24.862 215.77 23.722C215.074 22.582 214.51 21.268 214.078 19.78C213.658 18.28 213.328 16.654 213.088 14.902L214.294 14.722ZM206.896 9.808H208.21V19.33H206.896V9.808ZM205.24 12.058V14.938H209.974V12.058H205.24ZM203.944 10.924H211.342V16.072H203.944V10.924ZM205.006 17.764V18.79H210.172V17.764H205.006ZM203.566 16.738H211.666V19.798H203.566V16.738ZM202.702 12.796H204.43V12.886H210.46V12.796H212.35V14.056H210.46V13.984H204.43V14.056H202.702V12.796ZM203.89 23.488C204.178 23.116 204.478 22.69 204.79 22.21C205.114 21.718 205.42 21.214 205.708 20.698C206.008 20.182 206.254 19.69 206.446 19.222L207.814 19.528C207.598 20.032 207.34 20.542 207.04 21.058C206.752 21.574 206.452 22.072 206.14 22.552C205.84 23.02 205.558 23.434 205.294 23.794L203.89 23.488ZM203.89 23.488L204.97 22.588C205.702 22.768 206.464 22.996 207.256 23.272C208.048 23.548 208.804 23.842 209.524 24.154C210.244 24.466 210.862 24.76 211.378 25.036L210.28 26.026C209.788 25.726 209.182 25.414 208.462 25.09C207.754 24.778 206.998 24.484 206.194 24.208C205.39 23.92 204.622 23.68 203.89 23.488ZM209.182 20.158H210.532V20.914C210.532 21.286 210.484 21.682 210.388 22.102C210.304 22.51 210.124 22.924 209.848 23.344C209.572 23.752 209.164 24.154 208.624 24.55C208.096 24.934 207.394 25.288 206.518 25.612C205.642 25.948 204.55 26.242 203.242 26.494C203.182 26.338 203.08 26.146 202.936 25.918C202.804 25.702 202.672 25.522 202.54 25.378C203.752 25.174 204.76 24.928 205.564 24.64C206.368 24.352 207.01 24.052 207.49 23.74C207.982 23.416 208.348 23.086 208.588 22.75C208.828 22.414 208.984 22.084 209.056 21.76C209.14 21.436 209.182 21.136 209.182 20.86V20.158ZM202.792 20.806H212.206V21.994H202.792V20.806ZM233.232 10.834H238.254V12.076H233.232V10.834ZM228.966 12.94H237.948V14.182H228.966V12.94ZM230.316 18.34H239.136V19.474H230.316V18.34ZM232.422 9.844H234.06V13.588H232.422V9.844ZM237.66 12.94H237.894L238.128 12.886L239.19 13.12C239.07 13.588 238.932 14.068 238.776 14.56C238.62 15.052 238.464 15.472 238.308 15.82L237.03 15.532C237.15 15.232 237.27 14.86 237.39 14.416C237.51 13.96 237.6 13.534 237.66 13.138V12.94ZM228.39 12.94H229.884V18.178C229.884 18.814 229.86 19.498 229.812 20.23C229.764 20.95 229.674 21.688 229.542 22.444C229.41 23.188 229.212 23.908 228.948 24.604C228.696 25.3 228.366 25.93 227.958 26.494C227.874 26.41 227.754 26.314 227.598 26.206C227.442 26.098 227.28 25.984 227.112 25.864C226.956 25.756 226.818 25.684 226.698 25.648C227.214 24.928 227.592 24.136 227.832 23.272C228.072 22.408 228.222 21.538 228.282 20.662C228.354 19.774 228.39 18.94 228.39 18.16V12.94ZM230.208 15.37L233.106 15.1L233.232 16.324L230.352 16.612L230.208 15.37ZM232.71 20.554L233.664 19.978C234.288 20.422 234.762 20.944 235.086 21.544C235.41 22.132 235.614 22.726 235.698 23.326C235.782 23.926 235.764 24.466 235.644 24.946C235.536 25.426 235.356 25.78 235.104 26.008C234.912 26.212 234.708 26.35 234.492 26.422C234.288 26.494 234.042 26.536 233.754 26.548C233.622 26.548 233.472 26.542 233.304 26.53C233.136 26.53 232.968 26.524 232.8 26.512C232.788 26.344 232.752 26.14 232.692 25.9C232.644 25.672 232.566 25.474 232.458 25.306C232.662 25.318 232.848 25.33 233.016 25.342C233.196 25.354 233.352 25.36 233.484 25.36C233.628 25.36 233.754 25.348 233.862 25.324C233.97 25.3 234.066 25.228 234.15 25.108C234.294 24.976 234.39 24.736 234.438 24.388C234.498 24.04 234.486 23.644 234.402 23.2C234.318 22.744 234.138 22.282 233.862 21.814C233.598 21.346 233.214 20.926 232.71 20.554ZM233.772 21.058L234.528 21.544C234.204 21.808 233.808 22.078 233.34 22.354C232.872 22.63 232.374 22.894 231.846 23.146C231.33 23.386 230.826 23.59 230.334 23.758C230.274 23.626 230.184 23.47 230.064 23.29C229.956 23.11 229.848 22.966 229.74 22.858C230.196 22.75 230.676 22.6 231.18 22.408C231.696 22.216 232.182 22.006 232.638 21.778C233.094 21.538 233.472 21.298 233.772 21.058ZM234.33 22.372L235.14 22.93C234.768 23.302 234.294 23.686 233.718 24.082C233.142 24.466 232.536 24.82 231.9 25.144C231.264 25.48 230.652 25.756 230.064 25.972C229.992 25.828 229.896 25.66 229.776 25.468C229.656 25.288 229.536 25.138 229.416 25.018C229.992 24.862 230.586 24.646 231.198 24.37C231.822 24.082 232.41 23.764 232.962 23.416C233.526 23.068 233.982 22.72 234.33 22.372ZM238.236 19.888L239.172 20.68C238.596 21.016 237.948 21.34 237.228 21.652C236.508 21.952 235.86 22.21 235.284 22.426L234.492 21.706C234.876 21.55 235.296 21.37 235.752 21.166C236.22 20.95 236.67 20.728 237.102 20.5C237.546 20.272 237.924 20.068 238.236 19.888ZM237.102 21.202C237.306 21.982 237.612 22.714 238.02 23.398C238.44 24.082 238.956 24.592 239.568 24.928C239.4 25.048 239.22 25.21 239.028 25.414C238.848 25.63 238.704 25.828 238.596 26.008C237.96 25.576 237.426 24.946 236.994 24.118C236.574 23.29 236.262 22.408 236.058 21.472L237.102 21.202ZM234.6 18.79L235.626 19.168C235.254 19.54 234.78 19.9 234.204 20.248C233.64 20.584 233.04 20.884 232.404 21.148C231.768 21.412 231.15 21.628 230.55 21.796C230.502 21.676 230.424 21.532 230.316 21.364C230.208 21.184 230.112 21.04 230.028 20.932C230.58 20.776 231.15 20.59 231.738 20.374C232.338 20.158 232.89 19.918 233.394 19.654C233.898 19.378 234.3 19.09 234.6 18.79ZM222.432 18.97C223.116 18.79 223.944 18.562 224.916 18.286C225.9 17.998 226.896 17.704 227.904 17.404L228.12 18.952C227.208 19.24 226.29 19.534 225.366 19.834C224.442 20.122 223.596 20.38 222.828 20.608L222.432 18.97ZM222.72 13.336H227.832V14.92H222.72V13.336ZM224.754 9.808H226.302V24.676C226.302 25.084 226.254 25.408 226.158 25.648C226.062 25.888 225.888 26.074 225.636 26.206C225.396 26.338 225.09 26.422 224.718 26.458C224.346 26.506 223.872 26.53 223.296 26.53C223.272 26.314 223.218 26.056 223.134 25.756C223.05 25.456 222.954 25.192 222.846 24.964C223.206 24.976 223.536 24.988 223.836 25C224.136 25 224.34 24.994 224.448 24.982C224.556 24.982 224.634 24.964 224.682 24.928C224.73 24.88 224.754 24.796 224.754 24.676V9.808ZM232.35 13.894H233.736V16.126C233.736 16.342 233.766 16.492 233.826 16.576C233.886 16.66 234.024 16.702 234.24 16.702C234.336 16.702 234.486 16.702 234.69 16.702C234.906 16.702 235.14 16.702 235.392 16.702C235.644 16.702 235.872 16.702 236.076 16.702C236.292 16.702 236.448 16.702 236.544 16.702C236.748 16.702 236.994 16.696 237.282 16.684C237.57 16.672 237.792 16.648 237.948 16.612C237.96 16.792 237.972 16.972 237.984 17.152C238.008 17.332 238.032 17.506 238.056 17.674C237.912 17.71 237.708 17.734 237.444 17.746C237.18 17.758 236.91 17.764 236.634 17.764C236.526 17.764 236.34 17.764 236.076 17.764C235.824 17.764 235.554 17.764 235.266 17.764C234.978 17.764 234.714 17.764 234.474 17.764C234.234 17.764 234.066 17.764 233.97 17.764C233.526 17.764 233.184 17.704 232.944 17.584C232.716 17.464 232.56 17.284 232.476 17.044C232.392 16.792 232.35 16.48 232.35 16.108V13.894ZM233.034 15.1L236.454 14.794L236.562 15.784L233.142 16.108L233.034 15.1ZM249.524 9.862L250.28 11.122C249.764 11.266 249.182 11.398 248.534 11.518C247.898 11.638 247.25 11.734 246.59 11.806C245.93 11.878 245.294 11.938 244.682 11.986C244.658 11.818 244.61 11.62 244.538 11.392C244.466 11.164 244.388 10.96 244.304 10.78C244.904 10.72 245.522 10.642 246.158 10.546C246.794 10.45 247.406 10.348 247.994 10.24C248.582 10.12 249.092 9.994 249.524 9.862ZM247.472 12.616L248.786 12.148C249.05 12.46 249.314 12.802 249.578 13.174C249.842 13.546 250.082 13.912 250.298 14.272C250.526 14.632 250.694 14.956 250.802 15.244L249.416 15.766C249.308 15.49 249.152 15.166 248.948 14.794C248.744 14.422 248.516 14.05 248.264 13.678C248.012 13.294 247.748 12.94 247.472 12.616ZM250.928 10.6H257.426V11.932H250.928V10.6ZM256.922 10.6H258.524C258.524 10.6 258.524 10.678 258.524 10.834C258.524 10.978 258.512 11.104 258.488 11.212C258.428 12.064 258.362 12.772 258.29 13.336C258.218 13.9 258.134 14.338 258.038 14.65C257.954 14.962 257.846 15.196 257.714 15.352C257.558 15.508 257.39 15.622 257.21 15.694C257.042 15.766 256.844 15.814 256.616 15.838C256.424 15.862 256.154 15.874 255.806 15.874C255.458 15.874 255.092 15.862 254.708 15.838C254.696 15.634 254.648 15.4 254.564 15.136C254.492 14.86 254.402 14.626 254.294 14.434C254.63 14.47 254.942 14.494 255.23 14.506C255.518 14.506 255.722 14.506 255.842 14.506C256.094 14.506 256.274 14.452 256.382 14.344C256.466 14.26 256.538 14.092 256.598 13.84C256.658 13.588 256.712 13.216 256.76 12.724C256.82 12.232 256.874 11.59 256.922 10.798V10.6ZM253.376 11.014H254.87C254.786 11.878 254.624 12.646 254.384 13.318C254.156 13.99 253.778 14.578 253.25 15.082C252.722 15.574 251.978 15.982 251.018 16.306C250.958 16.174 250.88 16.03 250.784 15.874C250.688 15.718 250.58 15.568 250.46 15.424C250.34 15.268 250.226 15.148 250.118 15.064C250.958 14.812 251.594 14.5 252.026 14.128C252.47 13.744 252.788 13.294 252.98 12.778C253.172 12.262 253.304 11.674 253.376 11.014ZM246.806 19.474V20.464H255.338V19.474H246.806ZM246.806 21.508V22.534H255.338V21.508H246.806ZM246.806 17.458V18.448H255.338V17.458H246.806ZM245.168 16.378H257.048V23.596H245.168V16.378ZM252.728 24.64L253.772 23.704C254.408 23.872 255.044 24.064 255.68 24.28C256.316 24.496 256.916 24.712 257.48 24.928C258.056 25.144 258.554 25.336 258.974 25.504L257.588 26.494C257.216 26.314 256.766 26.116 256.238 25.9C255.722 25.696 255.164 25.48 254.564 25.252C253.964 25.036 253.352 24.832 252.728 24.64ZM248.192 23.776L249.722 24.478C249.23 24.742 248.66 25.006 248.012 25.27C247.376 25.534 246.716 25.774 246.032 25.99C245.36 26.206 244.718 26.392 244.106 26.548C244.022 26.428 243.902 26.29 243.746 26.134C243.602 25.978 243.452 25.822 243.296 25.666C243.14 25.522 243.002 25.402 242.882 25.306C243.506 25.186 244.148 25.048 244.808 24.892C245.468 24.736 246.092 24.568 246.68 24.388C247.268 24.196 247.772 23.992 248.192 23.776ZM244.304 16.378C244.268 16.258 244.208 16.12 244.124 15.964C244.052 15.808 243.968 15.658 243.872 15.514C243.776 15.358 243.686 15.232 243.602 15.136C243.758 15.052 243.914 14.914 244.07 14.722C244.226 14.53 244.304 14.242 244.304 13.858V10.78H245.942V14.938C245.942 14.938 245.888 14.974 245.78 15.046C245.672 15.106 245.534 15.19 245.366 15.298C245.21 15.394 245.048 15.508 244.88 15.64C244.712 15.772 244.574 15.904 244.466 16.036C244.358 16.156 244.304 16.27 244.304 16.378ZM244.304 16.378L244.178 15.1L244.862 14.578L249.146 13.516C249.158 13.72 249.176 13.954 249.2 14.218C249.224 14.47 249.248 14.674 249.272 14.83C248.276 15.106 247.472 15.334 246.86 15.514C246.248 15.682 245.774 15.82 245.438 15.928C245.102 16.036 244.85 16.126 244.682 16.198C244.526 16.258 244.4 16.318 244.304 16.378ZM266.932 14.794V16.306H275.248V14.794H266.932ZM266.932 12.004V13.48H275.248V12.004H266.932ZM265.258 10.618H276.994V17.692H265.258V10.618ZM266.32 19.042H276.994V20.536H266.32V19.042ZM276.58 19.042H278.308C278.308 19.042 278.302 19.084 278.29 19.168C278.29 19.252 278.284 19.354 278.272 19.474C278.272 19.582 278.266 19.672 278.254 19.744C278.134 21.076 278.008 22.162 277.876 23.002C277.744 23.842 277.6 24.49 277.444 24.946C277.3 25.402 277.132 25.732 276.94 25.936C276.76 26.14 276.562 26.278 276.346 26.35C276.13 26.434 275.884 26.488 275.608 26.512C275.368 26.536 275.044 26.548 274.636 26.548C274.24 26.548 273.814 26.536 273.358 26.512C273.346 26.296 273.298 26.05 273.214 25.774C273.142 25.498 273.04 25.258 272.908 25.054C273.328 25.09 273.718 25.114 274.078 25.126C274.438 25.138 274.696 25.144 274.852 25.144C275.008 25.144 275.134 25.126 275.23 25.09C275.326 25.066 275.416 25.012 275.5 24.928C275.644 24.784 275.776 24.508 275.896 24.1C276.028 23.692 276.148 23.098 276.256 22.318C276.376 21.538 276.484 20.53 276.58 19.294V19.042ZM267.562 16.954L269.2 17.476C268.768 18.196 268.258 18.892 267.67 19.564C267.094 20.224 266.482 20.83 265.834 21.382C265.186 21.934 264.532 22.42 263.872 22.84C263.788 22.732 263.662 22.6 263.494 22.444C263.338 22.288 263.176 22.138 263.008 21.994C262.852 21.838 262.702 21.718 262.558 21.634C263.554 21.094 264.496 20.416 265.384 19.6C266.284 18.772 267.01 17.89 267.562 16.954ZM269.434 19.528L271.054 20.032C270.61 20.872 270.082 21.67 269.47 22.426C268.858 23.17 268.198 23.86 267.49 24.496C266.794 25.12 266.08 25.666 265.348 26.134C265.264 26.026 265.138 25.894 264.97 25.738C264.814 25.582 264.652 25.426 264.484 25.27C264.328 25.126 264.184 25.006 264.052 24.91C265.168 24.31 266.2 23.542 267.148 22.606C268.108 21.658 268.87 20.632 269.434 19.528ZM273.142 19.636L274.762 20.032C274.294 21.388 273.67 22.636 272.89 23.776C272.122 24.916 271.282 25.864 270.37 26.62C270.286 26.524 270.16 26.41 269.992 26.278C269.824 26.146 269.65 26.014 269.47 25.882C269.302 25.75 269.158 25.648 269.038 25.576C269.95 24.904 270.76 24.052 271.468 23.02C272.176 21.976 272.734 20.848 273.142 19.636ZM283.836 10.978H298.11V12.67H283.836V10.978ZM282.882 18.61H299.154V20.32H282.882V18.61ZM285.024 13.858L286.572 13.408C286.8 13.816 287.016 14.26 287.22 14.74C287.436 15.208 287.628 15.67 287.796 16.126C287.976 16.57 288.102 16.966 288.174 17.314L286.536 17.854C286.452 17.506 286.332 17.104 286.176 16.648C286.032 16.192 285.858 15.718 285.654 15.226C285.45 14.734 285.24 14.278 285.024 13.858ZM295.392 13.336L297.21 13.822C296.994 14.29 296.76 14.77 296.508 15.262C296.256 15.754 296.01 16.228 295.77 16.684C295.53 17.128 295.302 17.524 295.086 17.872L293.592 17.404C293.808 17.044 294.03 16.63 294.258 16.162C294.486 15.682 294.696 15.196 294.888 14.704C295.092 14.2 295.26 13.744 295.392 13.336ZM290.1 11.662H291.864V26.494H290.1V11.662ZM305.924 23.902H315.968V25.54H305.924V23.902ZM305.078 18.754H316.922V26.476H315.104V20.392H306.824V26.494H305.078V18.754ZM312.656 12.562L313.988 11.68C314.552 12.184 315.146 12.754 315.77 13.39C316.394 14.014 316.97 14.638 317.498 15.262C318.038 15.886 318.464 16.45 318.776 16.954L317.318 18.016C317.03 17.5 316.628 16.924 316.112 16.288C315.596 15.652 315.032 15.01 314.42 14.362C313.82 13.714 313.232 13.114 312.656 12.562ZM304.286 17.386C304.262 17.266 304.214 17.104 304.142 16.9C304.082 16.696 304.016 16.486 303.944 16.27C303.872 16.054 303.8 15.874 303.728 15.73C303.956 15.682 304.184 15.568 304.412 15.388C304.64 15.196 304.904 14.956 305.204 14.668C305.372 14.524 305.612 14.284 305.924 13.948C306.236 13.612 306.584 13.216 306.968 12.76C307.352 12.304 307.742 11.806 308.138 11.266C308.534 10.726 308.9 10.186 309.236 9.646L310.946 10.384C310.394 11.164 309.8 11.926 309.164 12.67C308.54 13.402 307.904 14.092 307.256 14.74C306.62 15.388 305.984 15.97 305.348 16.486V16.54C305.348 16.54 305.294 16.57 305.186 16.63C305.078 16.678 304.952 16.75 304.808 16.846C304.664 16.93 304.538 17.02 304.43 17.116C304.334 17.212 304.286 17.302 304.286 17.386ZM304.286 17.386L304.268 16.054L305.474 15.424L316.778 14.974C316.79 15.202 316.814 15.466 316.85 15.766C316.886 16.066 316.922 16.306 316.958 16.486C315.182 16.582 313.652 16.666 312.368 16.738C311.084 16.798 309.998 16.852 309.11 16.9C308.234 16.948 307.508 16.996 306.932 17.044C306.368 17.08 305.912 17.116 305.564 17.152C305.228 17.176 304.964 17.206 304.772 17.242C304.592 17.278 304.43 17.326 304.286 17.386Z" fill="#FDFDFD"/>
<rect x="110" y="11" width="1" height="14" fill="white"/>
</svg>
