<svg width="25" height="27" viewBox="0 0 25 27" fill="none" xmlns="http://www.w3.org/2000/svg">
<path d="M20.4128 18.8911C19.415 18.8911 18.5021 19.2532 17.7933 19.8542L8.03182 14.1414C8.07804 13.891 8.10501 13.6368 8.10501 13.371C8.10501 13.1244 8.07804 12.8856 8.03567 12.6506L17.7509 7.1227C18.4635 7.73905 19.3881 8.11656 20.4051 8.11656C22.647 8.11656 24.4614 6.29833 24.4614 4.06021C24.4614 1.82209 22.6509 0 20.4128 0C18.1746 0 16.3564 1.81823 16.3564 4.05636C16.3564 4.3029 16.3834 4.54173 16.4257 4.77672L6.71052 10.3046C5.99786 9.68826 5.07334 9.31074 4.05636 9.31074C1.81438 9.31074 0 11.129 0 13.3671C0 15.6052 1.81823 17.4235 4.05636 17.4235C5.05407 17.4235 5.96704 17.0614 6.67585 16.4604L16.4373 22.1732C16.3911 22.4236 16.3641 22.6778 16.3641 22.9436C16.3641 25.1856 18.1823 27 20.4205 27C22.6586 27 24.4768 25.1818 24.4768 22.9436C24.4768 20.7055 22.6586 18.8873 20.4205 18.8873L20.4128 18.8911ZM20.4128 2.69653C21.1639 2.69653 21.7726 3.30518 21.7726 4.05636C21.7726 4.80753 21.1639 5.41618 20.4128 5.41618C19.6616 5.41618 19.0529 4.80753 19.0529 4.05636C19.0529 3.30518 19.6616 2.69653 20.4128 2.69653ZM4.04865 14.7308C3.29747 14.7308 2.68883 14.1221 2.68883 13.371C2.68883 12.6198 3.29747 12.0111 4.04865 12.0111C4.79983 12.0111 5.40848 12.6198 5.40848 13.371C5.40848 14.1221 4.79983 14.7308 4.04865 14.7308ZM20.4089 24.3073C19.6577 24.3073 19.0491 23.6987 19.0491 22.9475C19.0491 22.1963 19.6577 21.5877 20.4089 21.5877C21.1601 21.5877 21.7687 22.1963 21.7687 22.9475C21.7687 23.6987 21.1601 24.3073 20.4089 24.3073Z" fill="#797979"/>
</svg>
