<svg width="50" height="50" viewBox="0 0 50 50" fill="none" xmlns="http://www.w3.org/2000/svg">
<path d="M41 0H19C14.0714 0 10 4.07143 10 9V31C10 35.9286 14.0714 40 19 40H41C45.9286 40 50 35.9286 50 31V9C50 4.07143 45.9286 0 41 0ZM45.7143 31C45.7143 33.5714 43.5714 35.7143 41 35.7143H19C16.4286 35.7143 14.2857 33.5714 14.2857 31V9C14.2857 6.42857 16.4286 4.28571 19 4.28571H41C43.5714 4.28571 45.7143 6.42857 45.7143 9V31Z" fill="white"/>
<path d="M4.28571 41V10H0V41C0 45.9286 4.07143 50 9 50H39.2857V45.7143H9C6.42857 45.7143 4.28571 43.5714 4.28571 41Z" fill="white"/>
<path d="M32.5 9.64286H26.7857V17.1429H19.2857V22.8571H26.7857V30.3571H32.5V22.8571H40V17.1429H32.5V9.64286Z" fill="white"/>
</svg>
