<svg width="16" height="16" viewBox="0 0 16 16" fill="none" xmlns="http://www.w3.org/2000/svg">
<path d="M5.69087 9.99101H10.8495V5.11462H5.69087V9.99101ZM7.35139 6.77514H9.18903V8.33049H7.35139V6.77514Z" fill="#797979"/>
<path d="M15.892 6.93012V5.06481H14.1263V3.48732C14.1263 2.52422 13.3459 1.74378 12.3828 1.74378H10.8772V0.0500488H9.01191V1.74378H7.48423V0.0500488H5.61892V1.74378H4.01929C3.05619 1.74378 2.27574 2.52422 2.27574 3.48732V5.06481H0.648438V6.93012H2.27574V8.4578H0.648438V10.3231H2.27574V11.4689C2.27574 12.432 3.05619 13.2124 4.01929 13.2124H5.61892V15.05H7.48423V13.2124H9.01191V15.05H10.8772V13.2124H12.3828C13.3459 13.2124 14.1263 12.432 14.1263 11.4689V10.3231H15.892V8.4578H14.1263V6.93012H15.892ZM12.4658 11.4689C12.4658 11.5131 12.427 11.5519 12.3828 11.5519H4.01929C3.97501 11.5519 3.93626 11.5131 3.93626 11.4689V3.49285C3.93626 3.44857 3.97501 3.40983 4.01929 3.40983H12.3828C12.427 3.40983 12.4658 3.44857 12.4658 3.49285V11.4744V11.4689Z" fill="#797979"/>
</svg>
