<svg width="18" height="17" viewBox="0 0 18 17" fill="none" xmlns="http://www.w3.org/2000/svg">
<path d="M8.89526 0C4.20044 0 0.395264 3.80518 0.395264 8.5C0.395264 13.1948 4.20044 17 8.89526 17C13.5901 17 17.3953 13.1948 17.3953 8.5C17.3953 3.80518 13.5901 0 8.89526 0ZM2.08753 8.5C2.08753 4.74559 5.14086 1.69226 8.89526 1.69226C12.6497 1.69226 15.703 4.74559 15.703 8.5C15.703 10.1101 15.1397 11.5896 14.2017 12.7573C12.8552 11.7588 11.0517 11.1472 9.06691 11.1472C6.97817 11.1472 5.08767 11.8241 3.72177 12.9192C2.704 11.7298 2.08753 10.1874 2.08753 8.50242V8.5ZM4.98372 14.0651C6.04017 13.306 7.48101 12.837 9.06691 12.837C10.5682 12.837 11.9365 13.2577 12.9736 13.9467C11.835 14.8001 10.4231 15.3077 8.89526 15.3077C7.36739 15.3077 6.09094 14.8484 4.98372 14.0675V14.0651Z" fill="white"/>
<path d="M8.9412 9.58063C10.6697 9.58063 12.0719 8.17847 12.0719 6.44994C12.0719 4.72142 10.6697 3.31925 8.9412 3.31925C7.21267 3.31925 5.81051 4.72142 5.81051 6.44994C5.81051 8.17847 7.21267 9.58063 8.9412 9.58063ZM8.9412 5.01152C9.73414 5.01152 10.3796 5.657 10.3796 6.44994C10.3796 7.24289 9.73414 7.88837 8.9412 7.88837C8.14825 7.88837 7.50277 7.24289 7.50277 6.44994C7.50277 5.657 8.14825 5.01152 8.9412 5.01152Z" fill="white"/>
</svg>
