<svg width="20" height="20" viewBox="0 0 20 20" fill="none" xmlns="http://www.w3.org/2000/svg">
<path d="M10 0C4.47668 0 0 4.47668 0 10C0 15.5233 4.47668 20 10 20C15.5233 20 20 15.5233 20 10C20 4.47668 15.5233 0 10 0ZM1.9909 10C1.9909 5.58305 5.58305 1.9909 10 1.9909C14.417 1.9909 18.0091 5.58305 18.0091 10C18.0091 11.8942 17.3464 13.6348 16.2429 15.0085C14.6587 13.8339 12.537 13.1143 10.2019 13.1143C7.7446 13.1143 5.52048 13.9107 3.91354 15.1991C2.71615 13.7998 1.9909 11.9852 1.9909 10.0028V10ZM5.39818 16.5472C6.64107 15.6542 8.33618 15.1024 10.2019 15.1024C11.9681 15.1024 13.5779 15.5973 14.7981 16.4079C13.4585 17.4118 11.7975 18.0091 10 18.0091C8.2025 18.0091 6.7008 17.4687 5.39818 16.5501V16.5472Z" fill="#797979"/>
<path d="M10.054 11.2713C12.0876 11.2713 13.7372 9.62173 13.7372 7.58817C13.7372 5.55461 12.0876 3.90501 10.054 3.90501C8.02048 3.90501 6.37088 5.55461 6.37088 7.58817C6.37088 9.62173 8.02048 11.2713 10.054 11.2713ZM10.054 5.8959C10.9869 5.8959 11.7463 6.65529 11.7463 7.58817C11.7463 8.52105 10.9869 9.28043 10.054 9.28043C9.12116 9.28043 8.36177 8.52105 8.36177 7.58817C8.36177 6.65529 9.12116 5.8959 10.054 5.8959Z" fill="#797979"/>
</svg>
