<svg width="17" height="20" viewBox="0 0 17 20" fill="none" xmlns="http://www.w3.org/2000/svg">
<path d="M10.525 3.55954H2.2023C0.99872 3.55954 0 4.53265 0 5.76184V20L6.37644 17.2855L12.7529 20V5.76184C12.7273 4.53265 11.7542 3.55954 10.525 3.55954ZM10.6786 16.9014L7.17029 15.3905L6.37644 15.0576L5.58259 15.3905L2.04866 16.9014V5.76184C2.04866 5.68502 2.12548 5.60819 2.2023 5.60819H10.525C10.6018 5.60819 10.6786 5.68502 10.6786 5.76184V16.9014Z" fill="#FF664A"/>
<path d="M12.1127 0H2.84251V1.79257H12.1127C13.3931 1.79257 14.443 2.84251 14.443 4.12292V17.0807H16.2356V4.12292C16.2356 1.84379 14.3918 0 12.1127 0Z" fill="#FF664A"/>
</svg>
