<svg width="15" height="15" viewBox="0 0 15 15" fill="none" xmlns="http://www.w3.org/2000/svg">
<path d="M0.484557 2.82291C-0.161217 2.17714 -0.161217 1.13013 0.484556 0.484359C1.13033 -0.161415 2.17734 -0.161415 2.82311 0.484359L14.5159 12.1771C15.1616 12.8229 15.1616 13.8699 14.5159 14.5157C13.8701 15.1614 12.8231 15.1614 12.1773 14.5157L0.484557 2.82291Z" fill="#797979"/>
<path d="M12.1771 0.48433C12.8229 -0.161443 13.8699 -0.161444 14.5156 0.48433C15.1614 1.1301 15.1614 2.17711 14.5156 2.82288L2.82288 14.5156C2.17711 15.1614 1.1301 15.1614 0.48433 14.5156C-0.161444 13.8699 -0.161443 12.8229 0.48433 12.1771L12.1771 0.48433Z" fill="#797979"/>
</svg>
