<svg width="14" height="16" viewBox="0 0 14 16" fill="none" xmlns="http://www.w3.org/2000/svg">
<path d="M12.018 2.1484H9.46628C9.13952 1.19308 8.22998 0.5 7.17476 0.5C6.11954 0.5 5.21 1.19516 4.88324 2.1484H2.33155C1.3242 2.1484 0.5 2.97468 0.5 3.98203V13.6664C0.5 14.6737 1.3242 15.5 2.33363 15.5H12.018C13.0253 15.5 13.8516 14.6758 13.8516 13.6664V3.98203C13.8516 2.97468 13.0274 2.1484 12.018 2.1484ZM7.17476 1.81539C7.52442 1.81539 7.80748 2.09845 7.80748 2.44811C7.80748 2.79777 7.52442 3.08082 7.17476 3.08082C6.8251 3.08082 6.54204 2.79777 6.54204 2.44811C6.54204 2.09845 6.8251 1.81539 7.17476 1.81539ZM12.1845 13.6664C12.1845 13.7538 12.1054 13.835 12.0159 13.835H2.33363C2.24622 13.835 2.16505 13.7559 2.16505 13.6664V3.98203C2.16505 3.89462 2.24414 3.81345 2.33363 3.81345H12.018C12.1054 3.81345 12.1866 3.89253 12.1866 3.98203V13.6664H12.1845Z" fill="#FF7358"/>
<path d="M9.4642 5.80526H4.88324V7.26218H9.4642V5.80526Z" fill="#FF7358"/>
<path d="M9.4642 8.33821H4.88324V9.79513H9.4642V8.33821Z" fill="#FF7358"/>
</svg>
