<svg width="25" height="25" viewBox="0 0 25 25" fill="none" xmlns="http://www.w3.org/2000/svg">
<path d="M19.1732 0H3.34646C1.49606 0 0 1.49606 0 3.34646V21.6535C0 23.5039 1.49606 25 3.34646 25H21.1811C23.0315 25 24.5276 23.5039 24.5276 21.6535V5.51181L19.1732 0ZM21.7717 21.6535C21.7717 21.9685 21.4961 22.2441 21.1811 22.2441H3.34646C3.0315 22.2441 2.75591 22.0079 2.75591 21.6535V3.34646C2.75591 3.0315 3.0315 2.75591 3.34646 2.75591H18.2677L21.7717 6.41732V21.6535Z" fill="#797979"/>
<path d="M16.4567 4.25197H3.89764V9.40945H16.4567V4.25197Z" fill="#797979"/>
<path d="M12.3622 12.874C10.3937 12.874 8.77953 14.4882 8.77953 16.4567C8.77953 18.4252 10.3937 20.0394 12.3622 20.0394C14.3307 20.0394 15.9449 18.4252 15.9449 16.4567C15.9449 14.4882 14.3307 12.874 12.3622 12.874Z" fill="#797979"/>
</svg>
