<svg width="26" height="25" viewBox="0 0 26 25" fill="none" xmlns="http://www.w3.org/2000/svg">
<path d="M9.02865 3.54818C10.2331 2.96224 11.6003 2.60417 13.0326 2.60417C17.9805 2.60417 21.9844 6.60807 21.9844 11.556C21.9844 12.9883 21.6263 14.3555 21.0404 15.5599L22.9609 17.4805C24.0026 15.7552 24.5885 13.7044 24.5885 11.556C24.5885 5.17578 19.4128 0 13.0326 0C10.8516 0 8.83333 0.585937 7.10807 1.6276L9.02865 3.54818Z" fill="#797979"/>
<path d="M15.0833 9.63542L16.9388 11.4583L19.0221 9.3099L17.1667 7.51953L15.0833 9.63542Z" fill="#797979"/>
<path d="M0.5 2.27865L3.39714 5.17578C2.19271 6.9987 1.47656 9.21224 1.47656 11.556C1.47656 17.9362 6.65234 23.112 13.0326 23.112C15.3763 23.112 17.5898 22.3958 19.4128 21.1914L23.2214 25L25.0117 23.2096L2.29036 0.488281L0.5 2.27865ZM5.28516 7.0638L11.5026 13.2812L11.3073 13.4766L8.3776 10.5794L6.55469 12.4349L11.3724 17.1549L13.3581 15.1042L17.4922 19.2383C16.1901 19.987 14.6602 20.4427 13.0326 20.4427C8.11719 20.5078 4.08073 16.4714 4.08073 11.556C4.08073 9.92838 4.53646 8.39844 5.28516 7.0638Z" fill="#797979"/>
</svg>
