<svg width="26" height="25" viewBox="0 0 26 25" fill="none" xmlns="http://www.w3.org/2000/svg">
<path d="M21.1154 0H4.92308C2.5 0 0.5 2 0.5 4.42308V20.5769C0.5 23 2.5 25 4.92308 25H21.1154C23.5385 25 25.5385 23 25.5385 20.5769V4.42308C25.5769 2 23.5769 0 21.1154 0ZM21.1154 21.9231H4.92308C4.19231 21.9231 3.57692 21.3077 3.57692 20.5769V5.88462H22.5V20.5769C22.5 21.3077 21.8462 21.9231 21.1154 21.9231Z" fill="#797979"/>
<path d="M12.9615 8.38461C8.30769 8.38461 4.53846 13.7692 4.53846 13.7692C4.53846 13.7692 8.30769 19.1538 12.9615 19.1538C17.6154 19.1538 21.3846 13.7692 21.3846 13.7692C21.3846 13.7692 17.6154 8.38461 12.9615 8.38461ZM12.9615 17.1923C10.6538 17.1923 8.34615 15.2308 7 13.7308C8.34615 12.2692 10.6538 10.2692 12.9615 10.2692C15.2692 10.2692 17.5769 12.2308 18.8846 13.7308C17.6923 15.0769 15.3846 17.1923 12.9615 17.1923Z" fill="#797979"/>
<path d="M12.8846 11.7692C11.8846 11.7692 11.0385 12.5769 11.0385 13.6154C11.0385 14.6154 11.8462 15.4615 12.8846 15.4615C13.8846 15.4615 14.7308 14.6538 14.7308 13.6154C14.6923 12.6154 13.8846 11.7692 12.8846 11.7692Z" fill="#797979"/>
</svg>
