<svg width="23" height="25" viewBox="0 0 23 25" fill="none" xmlns="http://www.w3.org/2000/svg">
<path d="M22.7656 1.5625H15.7344V0H7.53125V1.5625H0.5V4.29688H2.35547V19.8984C2.35547 22.707 4.65234 25 7.45703 25H16C18.8086 25 21.1016 22.7031 21.1016 19.8984V4.29688H22.7617V1.5625H22.7656ZM18.7617 19.8984C18.7617 21.4219 17.5234 22.6562 16.0039 22.6562H7.46094C5.9375 22.6562 4.70312 21.418 4.70312 19.8984V4.29688H18.7656V19.8984H18.7617Z" fill="#797979"/>
<path d="M10.2656 7.03125H7.53125V19.1406H10.2656V7.03125Z" fill="#797979"/>
<path d="M15.7344 7.03125H13V19.1406H15.7344V7.03125Z" fill="#797979"/>
</svg>
