<svg xmlns="http://www.w3.org/2000/svg" width="19.605" height="15" viewBox="0 0 19.605 15">
  <path id="Vector" d="M16.763,0H2.842A2.843,2.843,0,0,0,0,2.842v9.316A2.843,2.843,0,0,0,2.842,15H16.763A2.843,2.843,0,0,0,19.6,12.158V2.842A2.843,2.843,0,0,0,16.763,0Zm-.295,1.882L9.906,6.568a.216.216,0,0,1-.257,0L2.534,1.939a1.024,1.024,0,0,1,.307-.056ZM2.842,13.118a.964.964,0,0,1-.96-.96v-8.4L8.62,8.149a2.088,2.088,0,0,0,1.154.345A2.11,2.11,0,0,0,11,8.1l6.725-4.8v8.858a.964.964,0,0,1-.96.96Z" fill="#fff"/>
</svg>
