<svg width="15" height="15" viewBox="0 0 15 15" fill="none" xmlns="http://www.w3.org/2000/svg">
<path d="M5.77595 15H8.77667L9.22769 12.7485C9.52958 12.6249 9.80965 12.4939 10.0715 12.3557C10.3334 12.2175 10.6026 12.0502 10.879 11.8501L13.0541 12.5267L14.5563 9.97696L12.8322 8.47478C12.8831 8.12561 12.9086 7.79825 12.9086 7.5C12.9086 7.20175 12.8831 6.87439 12.8322 6.52522L14.5563 5.02304L13.0541 2.47333L10.879 3.14985C10.6026 2.94981 10.3334 2.78249 10.0715 2.64428C9.80965 2.50606 9.52595 2.37512 9.22769 2.25146L8.77667 0H5.77595L5.32493 2.25146C5.02304 2.37512 4.74297 2.50606 4.48109 2.64428C4.2192 2.78249 3.95005 2.94981 3.67362 3.14985L1.49855 2.47333L0 5.0194L1.72405 6.52158C1.67313 6.87076 1.64767 7.19811 1.64767 7.49636C1.64767 7.79462 1.67313 8.12197 1.72405 8.47114L0 9.97333L1.50218 12.523L3.67726 11.8465C3.95369 12.0466 4.22284 12.2139 4.48472 12.3521C4.74661 12.4903 5.03031 12.6212 5.32856 12.7449L5.77958 14.9964L5.77595 15ZM7.27813 10.4971C6.45247 10.4971 5.74685 10.2025 5.15761 9.61688C4.56838 9.03128 4.2774 8.32202 4.2774 7.49636C4.2774 6.67071 4.57202 5.96508 5.15761 5.37585C5.74321 4.78661 6.45247 4.49564 7.27813 4.49564C8.10378 4.49564 8.80941 4.79025 9.39864 5.37585C9.98788 5.96145 10.2789 6.67071 10.2789 7.49636C10.2789 8.32202 9.98424 9.02764 9.39864 9.61688C8.81305 10.2061 8.10378 10.4971 7.27813 10.4971Z" fill="#797979"/>
</svg>
