<svg width="16" height="16" viewBox="0 0 16 16" fill="none" xmlns="http://www.w3.org/2000/svg">
<path d="M9.37352 13.8547C9.12154 13.914 8.86957 13.9536 8.60771 13.9832C7.69862 13.7658 6.76976 12.5998 6.25099 10.9002H9.36858V9.39822H5.92984C5.87055 8.95356 5.83597 8.48913 5.83597 8.00494C5.83597 7.52075 5.87055 7.03656 5.93478 6.58202H10.0652C10.1245 7.03656 10.164 7.51087 10.164 8.00494C10.164 8.27668 10.1492 8.53854 10.1245 8.8004H11.6117C11.6314 8.53854 11.6462 8.27668 11.6462 8.00494C11.6462 7.51581 11.6166 7.0415 11.5623 6.58202H13.8449C13.9585 7.0415 14.0227 7.51581 14.0227 8.00494C14.0227 8.27668 13.9931 8.53854 13.9536 8.8004H15.4506C15.4802 8.53854 15.5049 8.27668 15.5049 8.00494C15.5049 3.85968 12.1453 0.5 8 0.5C3.85474 0.5 0.5 3.85968 0.5 8C0.5 12.1403 3.85968 15.5 8 15.5C8.46937 15.5 8.92391 15.4506 9.36858 15.3666V13.8498L9.37352 13.8547ZM13.2026 4.98123H11.2609C10.9891 3.97332 10.584 3.07905 10.085 2.36265C11.3992 2.85178 12.501 3.78063 13.1976 4.98123H13.2026ZM8 2.3083C8.67688 2.77273 9.30435 3.72134 9.70949 4.98123H6.29051C6.69565 3.72134 7.32312 2.77273 8 2.3083ZM5.91502 2.36265C5.41601 3.07905 5.01087 3.96838 4.73913 4.98123H2.79743C3.49901 3.78557 4.59585 2.85178 5.91008 2.36265H5.91502ZM2.14526 9.39328C2.03656 8.94368 1.97727 8.47925 1.97727 8C1.97727 7.52075 2.0415 7.03162 2.15514 6.57708H4.43775C4.3834 7.03656 4.35375 7.51087 4.35375 8C4.35375 8.48913 4.3834 8.93874 4.43281 9.39328H2.14526ZM2.72332 10.8953H4.70949C4.98123 11.9575 5.39625 12.8962 5.91502 13.6374C4.55138 13.1334 3.41996 12.1502 2.72332 10.8953Z" fill="#00408E"/>
<path d="M15.3666 13.8893L13.0296 11.5524H14.9911V10.1443H10.7026V14.4328H12.1107V12.6294L14.3686 14.8874L15.3666 13.8893Z" fill="#00408E"/>
</svg>
