<svg width="25" height="25" viewBox="0 0 25 25" fill="none" xmlns="http://www.w3.org/2000/svg">
<path d="M12.5 0C5.58739 0 0 5.58739 0 12.5C0 19.4126 5.58739 25 12.5 25C19.4126 25 25 19.4126 25 12.5C25 5.58739 19.3768 0 12.5 0ZM12.5 22.4928C6.98424 22.4928 2.50716 17.9799 2.50716 12.5C2.50716 7.02006 6.98424 2.50716 12.5 2.50716C18.0158 2.50716 22.4928 6.98424 22.4928 12.5C22.4928 18.0158 17.9799 22.4928 12.5 22.4928Z" fill="#FF7358"/>
<path d="M12.5 8.88252C13.2912 8.88252 13.9327 8.2411 13.9327 7.44986C13.9327 6.65862 13.2912 6.01719 12.5 6.01719C11.7088 6.01719 11.0673 6.65862 11.0673 7.44986C11.0673 8.2411 11.7088 8.88252 12.5 8.88252Z" fill="#FF7358"/>
<path d="M13.9327 11.3181H11.0673V18.6605H13.9327V11.3181Z" fill="#FF7358"/>
</svg>
