<svg width="25" height="25" viewBox="0 0 25 25" fill="none" xmlns="http://www.w3.org/2000/svg">
<path d="M12.5 0C5.5949 0 0 5.5949 0 12.5C0 19.4051 5.5949 25 12.5 25C19.4051 25 25 19.4051 25 12.5C25 5.5949 19.4051 0 12.5 0ZM2.47875 12.5C2.47875 11.7564 2.54958 11.0127 2.72663 10.3045C3.18697 10.6941 3.6119 11.1544 4.03683 11.5793C4.56799 12.1105 5.09915 12.6062 5.63031 13.1374C6.55099 14.0581 7.47167 14.9788 8.35694 15.8994C8.49858 16.0411 8.60482 16.1473 8.74646 16.289C8.64023 16.6076 8.56941 16.9263 8.56941 17.2805C8.56941 18.7677 9.70255 20.0071 11.1544 20.1487V22.4504C6.26771 21.7776 2.47875 17.5637 2.47875 12.5ZM20.1841 18.9448C20.0071 18.2365 19.4759 17.7054 18.7677 17.5283C18.6615 17.4929 18.5552 17.4575 18.449 17.4575H16.2181V13.279C16.2181 12.9249 15.8994 12.5354 15.5099 12.5708H7.64873C7.64873 12.5354 7.64873 12.5 7.64873 12.5V10.2691C7.79037 10.2691 7.8966 10.3045 8.03824 10.3045C8.35694 10.3399 8.71105 10.3045 9.02975 10.3045C9.17139 10.3045 9.34844 10.3045 9.49008 10.3045C9.59632 10.3045 9.70255 10.2691 9.80878 10.2691C9.84419 10.2691 9.8796 10.2691 9.91501 10.2691H10.0212C10.0921 10.2691 10.1629 10.2337 10.2337 10.2337C10.3045 10.2337 10.3754 10.2337 10.4108 10.1983C10.5878 10.1629 10.7649 10.0921 10.9065 9.98584C11.2252 9.80878 11.4023 9.49008 11.5439 9.17139C11.6856 8.71105 11.6147 8.17989 11.6147 7.68414C11.6147 7.25921 11.5793 6.86969 11.4731 6.48017C11.4731 6.44476 11.4731 6.40935 11.4731 6.37394C11.9688 6.69263 12.5354 6.86969 13.1374 6.86969C14.9079 6.86969 16.3244 5.45326 16.3244 3.68272C16.3244 3.54108 16.3244 3.39943 16.289 3.2932C19.9009 4.81586 22.4504 8.39235 22.4504 12.5354C22.5212 14.9433 21.636 17.2096 20.1841 18.9448Z" fill="#E7E7E5"/>
</svg>
