<svg width="23" height="25" viewBox="0 0 23 25" fill="none" xmlns="http://www.w3.org/2000/svg">
<path d="M20.7741 2.45028H18.9276V0H15.9801V2.45028H6.5696V0H3.62216V2.45028H1.77557C0.78125 2.45028 0 3.26705 0 4.22585V23.2244C0 24.2188 0.816761 25 1.77557 25H20.7741C21.7685 25 22.5497 24.1832 22.5497 23.2244V4.22585C22.5497 3.26705 21.7685 2.45028 20.7741 2.45028ZM19.7088 22.1591H2.84091V9.97869H19.7088V22.1591ZM19.7088 7.42187H2.84091V5.29119H19.7088V7.42187Z" fill="#E7E7E5"/>
<path d="M14.4886 20.0639C16.3322 20.0639 17.8267 18.5694 17.8267 16.7259C17.8267 14.8823 16.3322 13.3878 14.4886 13.3878C12.6451 13.3878 11.1506 14.8823 11.1506 16.7259C11.1506 18.5694 12.6451 20.0639 14.4886 20.0639Z" fill="#E7E7E5"/>
</svg>
