<svg width="36" height="36" viewBox="0 0 36 36" fill="none" xmlns="http://www.w3.org/2000/svg">
<rect x="0.5" y="0.5" width="35" height="35" rx="17.5" fill="#2EC044"/>
<path d="M30.6866 17.7197C30.6866 12.0856 25.0361 7.5 18.0933 7.5C11.1506 7.5 5.5 12.0856 5.5 17.7197C5.5 22.7708 9.97884 27.0032 16.0318 27.8026C16.4425 27.8902 17.001 28.0736 17.1406 28.4241C17.2665 28.7416 17.2227 29.2399 17.1817 29.5629C17.1817 29.5629 17.0338 30.4527 17.001 30.6416C16.9462 30.9591 16.7491 31.8872 18.0906 31.3205C19.4348 30.7538 25.3427 27.0497 27.9845 24.0082C29.8106 22.0069 30.6839 19.9756 30.6839 17.7197H30.6866ZM13.6501 20.7284C13.6501 20.8626 13.5406 20.9748 13.4064 20.9748H9.87754C9.81184 20.9748 9.75161 20.9475 9.70781 20.9064C9.70781 20.9064 9.70781 20.9064 9.70507 20.9037C9.70507 20.9037 9.70507 20.9037 9.70233 20.9009C9.66127 20.8571 9.63389 20.7969 9.63389 20.7312V15.2449C9.63389 15.1107 9.7434 14.9985 9.88028 14.9985H10.7646C10.8987 14.9985 11.0109 15.108 11.0109 15.2449V19.6033H13.4119C13.546 19.6033 13.6555 19.7128 13.6555 19.8497V20.7339L13.6501 20.7284ZM15.78 20.7284C15.78 20.8626 15.6705 20.9721 15.5336 20.9721H14.6493C14.5152 20.9721 14.4029 20.8626 14.4029 20.7284V15.2421C14.4029 15.108 14.5124 14.9985 14.6493 14.9985H15.5336C15.6677 14.9985 15.78 15.108 15.78 15.2421V20.7284ZM21.8603 20.7284C21.8603 20.8626 21.7508 20.9721 21.614 20.9721H20.7297C20.7078 20.9721 20.6859 20.9694 20.6667 20.9639C20.6667 20.9639 20.6667 20.9639 20.664 20.9639C20.6585 20.9639 20.653 20.9612 20.6476 20.9584C20.6476 20.9584 20.6421 20.9584 20.6393 20.9557C20.6339 20.9557 20.6311 20.9529 20.6284 20.9502C20.6257 20.9502 20.6202 20.9475 20.6174 20.9447C20.6174 20.9447 20.612 20.9447 20.6092 20.942C20.6038 20.9392 20.5983 20.9365 20.5928 20.9338C20.5682 20.9173 20.549 20.8982 20.5298 20.8735L18.0112 17.4734V20.7312C18.0112 20.8653 17.9017 20.9748 17.7648 20.9748H16.8805C16.7464 20.9748 16.6341 20.8653 16.6341 20.7312V15.2449C16.6341 15.1107 16.7436 15.0012 16.8805 15.0012H17.7648C17.7648 15.0012 17.7703 15.0012 17.773 15.0012C17.7785 15.0012 17.7812 15.0012 17.7867 15.0012C17.7922 15.0012 17.7949 15.0012 17.8004 15.0012C17.8031 15.0012 17.8086 15.0012 17.8113 15.0012C17.8168 15.0012 17.8195 15.0012 17.825 15.004C17.8278 15.004 17.8305 15.004 17.8332 15.004C17.8387 15.004 17.8442 15.0067 17.8469 15.0094C17.8497 15.0094 17.8524 15.0094 17.8551 15.0122C17.8606 15.0122 17.8633 15.0149 17.8688 15.0177C17.8688 15.0177 17.8743 15.0177 17.877 15.0204C17.8825 15.0204 17.8852 15.0259 17.8907 15.0286C17.8907 15.0286 17.8962 15.0313 17.8989 15.0341C17.9044 15.0368 17.9071 15.0396 17.9126 15.0423C17.9126 15.0423 17.9181 15.045 17.9181 15.0478C17.9236 15.0505 17.9263 15.056 17.9318 15.0587C17.9318 15.0587 17.9345 15.0615 17.9373 15.0642C17.9427 15.0697 17.9482 15.0751 17.9509 15.0806C17.9564 15.0888 17.9646 15.0971 17.9701 15.1053L20.486 18.5V15.2394C20.486 15.1053 20.5955 14.9958 20.7324 14.9958H21.6167C21.7536 14.9958 21.8631 15.1053 21.8631 15.2394V20.7257L21.8603 20.7284ZM26.7389 16.1237C26.7389 16.2606 26.6294 16.3701 26.4952 16.3701H24.0943V17.2981H26.4952C26.6294 17.2981 26.7389 17.4076 26.7389 17.5445V18.4288C26.7389 18.5657 26.6294 18.6752 26.4952 18.6752H24.0943V19.6033H26.4952C26.6294 19.6033 26.7389 19.7128 26.7389 19.8497V20.7339C26.7389 20.8681 26.6294 20.9803 26.4952 20.9803H22.9664C22.9007 20.9803 22.8404 20.9529 22.7966 20.9119C22.7966 20.9119 22.7966 20.9119 22.7939 20.9091C22.7939 20.9091 22.7939 20.9091 22.7912 20.9064C22.7501 20.8626 22.7227 20.8024 22.7227 20.7367V15.2504C22.7227 15.1847 22.7501 15.1244 22.7912 15.0806C22.7912 15.0806 22.7912 15.0779 22.7939 15.0751C22.7939 15.0751 22.7939 15.0751 22.7966 15.0751C22.8404 15.0313 22.9007 15.0067 22.9664 15.0067H26.4952C26.6294 15.0067 26.7389 15.1162 26.7389 15.2531V16.1374V16.1237Z" fill="white"/>
</svg>
