<svg width="21" height="20" viewBox="0 0 21 20" fill="none" xmlns="http://www.w3.org/2000/svg">
<path d="M16.6217 7.39507L14.9929 9.03595C15.2454 9.72668 15.3562 10.4612 15.3187 11.1956L17.8765 8.6378C18.6669 7.84582 19.1103 6.7723 19.1091 5.65341C19.108 4.53452 18.6625 3.4619 17.8705 2.67152C17.4783 2.28017 17.0129 1.96989 16.5009 1.75839C15.9888 1.54689 15.4401 1.43833 14.8861 1.43889C13.7672 1.44002 12.6946 1.88558 11.9042 2.67756L8.45354 6.12822C7.97843 6.59166 7.62103 7.16199 7.41114 7.79163C7.20126 8.42128 7.14499 9.09198 7.24701 9.7478C7.32946 10.3069 7.53107 10.8418 7.83821 11.3163C7.99934 11.5851 8.19394 11.8324 8.41734 12.0523L9.093 12.7279L10.2995 11.5214L9.68419 10.894C9.45585 10.6667 9.27534 10.3959 9.15332 10.0977C8.95702 9.64567 8.90382 9.14438 9.00089 8.66122C9.09795 8.17807 9.34062 7.73622 9.69626 7.39507L13.1469 3.94441C13.6045 3.48362 14.2264 3.22348 14.8758 3.22122C15.5252 3.21896 16.1489 3.47476 16.6097 3.93234C17.0704 4.38993 17.3306 5.01182 17.3328 5.66121C17.3351 6.3106 17.0793 6.93429 16.6217 7.39507Z" fill="white"/>
<path d="M13.7864 10.2787C13.7081 9.72409 13.5106 9.19308 13.2073 8.72225C13.034 8.4449 12.8228 8.19312 12.5799 7.97421L11.9042 7.27442L10.6977 8.48095L11.3733 9.20486C11.8338 9.66826 12.0923 10.295 12.0923 10.9483C12.0923 11.6016 11.8338 12.2283 11.3733 12.6917L7.8744 16.1545C7.41202 16.6168 6.78489 16.8766 6.13097 16.8766C5.47706 16.8766 4.84993 16.6168 4.38754 16.1545C3.92516 15.6921 3.66539 15.0649 3.66539 14.411C3.66539 13.7571 3.92516 13.13 4.38754 12.6676L6.02842 11.0267C5.78707 10.3334 5.68059 9.60035 5.71472 8.86704L3.15689 11.4369C2.38839 12.2314 1.96312 13.2963 1.97288 14.4016C1.98264 15.5069 2.42664 16.5641 3.20904 17.3449C3.99145 18.1257 5.04951 18.5676 6.15485 18.5751C7.2602 18.5826 8.32417 18.1552 9.11713 17.3851L12.5799 13.9344C13.0563 13.4643 13.4142 12.8877 13.6239 12.252C13.8337 11.6164 13.8894 10.94 13.7864 10.2787Z" fill="white"/>
<path d="M4.62885 5.38018C4.70933 5.46132 4.80523 5.52554 4.9109 5.56905C5.01658 5.61257 5.1299 5.63449 5.24418 5.63355C5.4163 5.63397 5.58467 5.58325 5.72792 5.48783C5.87117 5.3924 5.98284 5.25657 6.04877 5.09757C6.11469 4.93858 6.1319 4.76358 6.0982 4.59479C6.06451 4.42599 5.98143 4.27102 5.85951 4.14952L4.42374 2.70169C4.25549 2.60213 4.05889 2.56138 3.86493 2.58587C3.67097 2.61035 3.49067 2.69866 3.35243 2.8369C3.21419 2.97514 3.12587 3.15545 3.10139 3.34941C3.07691 3.54337 3.11766 3.73996 3.21721 3.90821L4.62885 5.38018Z" fill="white"/>
<path d="M3.3258 8.80671C3.50712 8.79847 3.68161 8.73516 3.82604 8.62523C3.97046 8.5153 4.07795 8.36396 4.13417 8.19138C4.1985 7.9706 4.17393 7.73342 4.06572 7.53052C3.9575 7.32761 3.77422 7.17508 3.55504 7.10551L1.63666 6.51431C1.52739 6.47914 1.41216 6.46628 1.29782 6.47652C1.18348 6.48675 1.07236 6.51987 0.971067 6.57389C0.869775 6.62791 0.780374 6.70174 0.708176 6.79099C0.635979 6.88025 0.582457 6.9831 0.55079 7.09344C0.486462 7.31422 0.51103 7.5514 0.619246 7.7543C0.727461 7.95721 0.910741 8.10974 1.12992 8.17932L3.07243 8.77051L3.3258 8.80671Z" fill="white"/>
<path d="M7.58484 3.11191C7.63921 3.29022 7.7495 3.44632 7.89942 3.55712C8.04934 3.66793 8.23092 3.72757 8.41734 3.72723C8.50139 3.73896 8.58666 3.73896 8.67071 3.72723C8.89264 3.65775 9.07807 3.50331 9.18657 3.29763C9.29506 3.09194 9.31781 2.85169 9.24984 2.6293L8.65865 0.650593C8.62942 0.537895 8.57783 0.432222 8.50695 0.339856C8.43607 0.247489 8.34735 0.170312 8.24605 0.112912C8.14476 0.0555113 8.03296 0.0190587 7.9173 0.00571997C7.80164 -0.00761878 7.68447 0.00242849 7.57277 0.0352648C7.46243 0.0669311 7.35958 0.120453 7.27032 0.192651C7.18107 0.264848 7.10724 0.354249 7.05322 0.455541C6.9992 0.556833 6.96608 0.66795 6.95585 0.78229C6.94561 0.896631 6.95847 1.01186 6.99364 1.12114L7.58484 3.11191Z" fill="white"/>
<path d="M16.4045 14.6825C16.2363 14.5829 16.0397 14.5422 15.8457 14.5667C15.6518 14.5912 15.4715 14.6795 15.3332 14.8177C15.195 14.9559 15.1067 15.1362 15.0822 15.3302C15.0577 15.5242 15.0985 15.7208 15.198 15.889L16.6338 17.3248C16.8023 17.4872 17.0272 17.578 17.2612 17.5782C17.4333 17.5786 17.6017 17.5279 17.7449 17.4324C17.8882 17.337 17.9998 17.2012 18.0658 17.0422C18.1317 16.8832 18.1489 16.7082 18.1152 16.5394C18.0815 16.3706 17.9984 16.2156 17.8765 16.0941L16.4045 14.6825Z" fill="white"/>
<path d="M19.8914 11.8834L17.9489 11.2922C17.8396 11.2587 17.7247 11.2471 17.6109 11.2581C17.4971 11.2691 17.3866 11.3025 17.2857 11.3563C17.1848 11.4101 17.0956 11.4833 17.023 11.5716C16.9505 11.66 16.8961 11.7618 16.863 11.8713C16.8278 11.9806 16.815 12.0958 16.8252 12.2101C16.8355 12.3245 16.8686 12.4356 16.9226 12.5369C16.9766 12.6382 17.0505 12.7276 17.1397 12.7998C17.229 12.872 17.3318 12.9255 17.4422 12.9572L19.3847 13.5604H19.638C19.8436 13.5528 20.04 13.4736 20.1932 13.3363C20.3464 13.1991 20.4468 13.0126 20.4769 12.8091C20.507 12.6056 20.4649 12.398 20.358 12.2223C20.251 12.0466 20.086 11.9139 19.8914 11.8472V11.8834Z" fill="white"/>
<path d="M13.4365 16.9266C13.4048 16.8163 13.3513 16.7134 13.2791 16.6242C13.2069 16.5349 13.1175 16.4611 13.0162 16.4071C12.9149 16.3531 12.8038 16.3199 12.6895 16.3097C12.5751 16.2995 12.4599 16.3123 12.3506 16.3475C12.2412 16.3806 12.1394 16.435 12.051 16.5075C11.9626 16.58 11.8894 16.6693 11.8356 16.7702C11.7818 16.8711 11.7484 16.9816 11.7374 17.0954C11.7264 17.2092 11.738 17.324 11.7715 17.4334L12.3627 19.3759C12.4187 19.5532 12.5294 19.7082 12.679 19.8188C12.8285 19.9293 13.0092 19.9897 13.1952 19.9912C13.2792 20.0029 13.3645 20.0029 13.4486 19.9912C13.5589 19.9595 13.6618 19.906 13.751 19.8338C13.8403 19.7616 13.9141 19.6722 13.9681 19.5709C14.0221 19.4696 14.0552 19.3585 14.0655 19.2442C14.0757 19.1298 14.0629 19.0146 14.0277 18.9053L13.4365 16.9266Z" fill="white"/>
</svg>
