<svg width="25" height="26" viewBox="0 0 25 26" fill="none" xmlns="http://www.w3.org/2000/svg">
<path fill-rule="evenodd" clip-rule="evenodd" d="M14.6964 15.3564C17.3948 12.658 21.796 12.658 24.4926 15.3564C24.6144 15.4781 24.729 15.6035 24.84 15.7306L20.9956 19.575C20.7431 19.0557 20.2095 18.6976 19.5936 18.6976C18.7359 18.6976 18.034 19.3977 18.0358 20.2554C18.0358 20.8696 18.3939 21.4032 18.9132 21.6556L15.0688 25.5C14.9417 25.389 14.8163 25.2744 14.6946 25.1526C11.9962 22.4542 11.9962 18.053 14.6946 15.3564H14.6964ZM10.2217 10.7224C12.9201 8.02399 12.9201 3.62276 10.2217 0.924365C10.1 0.802606 9.97463 0.688009 9.8475 0.576993L6.00313 4.42136C6.5224 4.67383 6.88051 5.20742 6.88051 5.82338C6.88051 6.68107 6.1804 7.38297 5.32271 7.38118C4.70855 7.38118 4.17496 7.02306 3.92249 6.5038L0.078125 10.3482C0.189141 10.4753 0.303738 10.6006 0.425497 10.7224C3.12389 13.4208 7.52512 13.4208 10.2217 10.7224ZM14.7752 10.6436C12.0768 7.94521 12.0768 3.54398 14.7752 0.847372C14.8969 0.725613 15.0223 0.611016 15.1494 0.5L18.9937 4.34436C18.4745 4.59863 18.1164 5.13042 18.1164 5.74638C18.1164 6.60407 18.8165 7.30597 19.6742 7.30418C20.2883 7.30418 20.8219 6.94607 21.0762 6.4268L24.9205 10.2712C24.8095 10.3983 24.6949 10.5236 24.5732 10.6454C21.8748 13.3438 17.4736 13.3438 14.7769 10.6454L14.7752 10.6436ZM10.2611 15.2382C7.56272 12.5398 3.16149 12.5398 0.46489 15.2382C0.343131 15.36 0.228533 15.4853 0.117518 15.6125L3.96188 19.4568C4.21435 18.9375 4.74794 18.5794 5.36211 18.5794C6.22158 18.5794 6.9217 19.2795 6.91991 20.139C6.91991 20.7532 6.56179 21.2868 6.04253 21.541L9.88689 25.3854C10.014 25.2762 10.1394 25.1598 10.2611 25.038C12.9595 22.3396 12.9595 17.9384 10.2611 15.24V15.2382Z" fill="white"/>
</svg>
