<svg width="36" height="36" viewBox="0 0 36 36" fill="none" xmlns="http://www.w3.org/2000/svg">
<path fill-rule="evenodd" clip-rule="evenodd" d="M20.9795 21.2989C24.7598 17.5212 30.9257 17.5212 34.7036 21.2989C34.8741 21.4694 35.0347 21.6449 35.1902 21.8229L29.8044 27.205C29.4507 26.478 28.7032 25.9767 27.8403 25.9767C26.6387 25.9767 25.6554 26.9568 25.6579 28.1576C25.6579 29.0174 26.1596 29.7644 26.887 30.1179L21.5013 35.5C21.3232 35.3446 21.1476 35.1841 20.977 35.0137C17.1967 31.2359 17.1967 25.0742 20.977 21.2989H20.9795ZM14.7107 14.8113C18.491 11.0336 18.491 4.87187 14.7107 1.09411C14.5401 0.923649 14.3645 0.763213 14.1864 0.607791L8.80066 5.9899C9.52813 6.34336 10.0298 7.09039 10.0298 7.95273C10.0298 9.15349 9.049 10.1362 7.84743 10.1336C6.98701 10.1336 6.23948 9.63229 5.88578 8.90532L0.5 14.2874C0.655528 14.4654 0.816073 14.6409 0.986652 14.8113C4.76698 18.5891 10.9329 18.5891 14.7107 14.8113ZM21.0899 14.701C17.3095 10.9233 17.3095 4.76157 21.0899 0.986321C21.2604 0.815858 21.436 0.655422 21.6141 0.5L26.9999 5.88211C26.2724 6.23808 25.7707 6.98259 25.7707 7.84493C25.7707 9.04569 26.7516 10.0284 27.9532 10.0259C28.8136 10.0259 29.5611 9.5245 29.9173 8.79752L35.3031 14.1796C35.1476 14.3576 34.987 14.5331 34.8164 14.7036C31.0361 18.4813 24.8702 18.4813 21.0924 14.7036L21.0899 14.701ZM14.7659 21.1335C10.9856 17.3558 4.81966 17.3558 1.04184 21.1335C0.871261 21.304 0.710715 21.4795 0.555188 21.6574L5.94096 27.0395C6.29466 26.3126 7.04219 25.8112 7.90261 25.8112C9.1067 25.8112 10.0875 26.7914 10.085 27.9946C10.085 28.8545 9.58332 29.6015 8.85585 29.9575L14.2416 35.3396C14.4197 35.1866 14.5953 35.0237 14.7659 34.8532C18.5462 31.0755 18.5462 24.9138 14.7659 21.136V21.1335Z" fill="#141920"/>
</svg>
