<svg width="25" height="25" viewBox="0 0 25 25" fill="none" xmlns="http://www.w3.org/2000/svg">
<path d="M12.5 0C5.59859 0 0 5.59859 0 12.5C0 19.4014 5.59859 25 12.5 25C19.4014 25 25 19.4014 25 12.5C25 5.59859 19.4014 0 12.5 0ZM12.5 22.1831C7.14789 22.1831 2.8169 17.8169 2.8169 12.5C2.8169 7.1831 7.14789 2.8169 12.5 2.8169C17.8521 2.8169 22.1831 7.14789 22.1831 12.5C22.1831 17.8521 17.8169 22.1831 12.5 22.1831Z" fill="white"/>
<path d="M10.6338 14.6127L7.46479 11.4789L5.49296 13.4859L10.7042 18.5915L18.9789 10.0704L16.9718 8.1338L10.6338 14.6127Z" fill="white"/>
</svg>
