<svg width="51" height="20" viewBox="0 0 51 20" fill="none" xmlns="http://www.w3.org/2000/svg">
<path d="M4.45882 11.1294V8.90588H2.22353V11.1294H4.45882ZM17.8118 11.1294V8.90588H13.3647V11.1294H17.8118ZM6.68235 0H0V6.68235H6.68235V0ZM4.45882 4.45882H2.22353V2.22353H4.45882V4.45882ZM11.1294 0H8.90588V2.22353H11.1294V0ZM0 20H6.68235V13.3647H0V20ZM2.22353 15.5529H4.45882V17.7765H2.22353V15.5529ZM20 0H13.3647V6.68235H20V0ZM17.8118 4.45882H15.5882V2.22353H17.8118V4.45882ZM20 20V13.3647H13.3647V20H20ZM15.5529 15.5529H17.7765V17.7765H15.5882L15.5529 15.5529ZM11.1294 6.68235V4.45882H8.90588V8.90588H6.68235V13.3647H8.90588V11.1294H11.1294V8.90588H13.3647V6.68235H11.1294ZM11.1294 13.3647H13.3647V11.1294H11.1294V13.3647ZM8.90588 17.8118H11.1294V13.3647H8.90588V17.8118Z" fill="white"/>
<path d="M36.992 17.92L35.552 15.984C35.1253 16.0693 34.7093 16.112 34.304 16.112C33.248 16.112 32.2773 15.8667 31.392 15.376C30.5173 14.8853 29.8187 14.2027 29.296 13.328C28.784 12.4427 28.528 11.4507 28.528 10.352C28.528 9.25333 28.784 8.26667 29.296 7.392C29.8187 6.51733 30.5173 5.83467 31.392 5.344C32.2773 4.85333 33.248 4.608 34.304 4.608C35.36 4.608 36.3253 4.85333 37.2 5.344C38.0853 5.83467 38.7787 6.51733 39.28 7.392C39.792 8.26667 40.048 9.25333 40.048 10.352C40.048 11.312 39.8507 12.192 39.456 12.992C39.072 13.7813 38.5333 14.4373 37.84 14.96L40.304 17.92H36.992ZM31.328 10.352C31.328 11.344 31.5947 12.1387 32.128 12.736C32.672 13.3227 33.3973 13.616 34.304 13.616C35.2 13.616 35.9147 13.3173 36.448 12.72C36.992 12.1227 37.264 11.3333 37.264 10.352C37.264 9.36 36.992 8.57067 36.448 7.984C35.9147 7.38667 35.2 7.088 34.304 7.088C33.3973 7.088 32.672 7.38133 32.128 7.968C31.5947 8.55467 31.328 9.34933 31.328 10.352Z" fill="white"/>
<path d="M47.3294 16L44.9934 11.76H44.3374V16H41.6014V4.768H46.1934C47.0787 4.768 47.8307 4.92267 48.4494 5.232C49.0787 5.54133 49.548 5.968 49.8574 6.512C50.1667 7.04533 50.3214 7.64267 50.3214 8.304C50.3214 9.05067 50.108 9.71733 49.6814 10.304C49.2654 10.8907 48.6467 11.3067 47.8254 11.552L50.4174 16H47.3294ZM44.3374 9.824H46.0334C46.5347 9.824 46.908 9.70133 47.1534 9.456C47.4094 9.21067 47.5374 8.864 47.5374 8.416C47.5374 7.98933 47.4094 7.65333 47.1534 7.408C46.908 7.16267 46.5347 7.04 46.0334 7.04H44.3374V9.824Z" fill="white"/>
</svg>
