<svg width="15" height="16" viewBox="0 0 15 16" fill="none" xmlns="http://www.w3.org/2000/svg">
<path d="M11.6465 0.5H2.15045C1.04022 0.5 0.142578 1.39764 0.142578 2.50787V13.4921C0.142578 14.6024 1.04022 15.5 2.15045 15.5H12.8512C13.9615 15.5 14.8591 14.6024 14.8591 13.4921V3.80709L11.6465 0.5ZM13.2056 13.4921C13.2056 13.6811 13.0402 13.8465 12.8512 13.8465H2.15045C1.96148 13.8465 1.79612 13.7047 1.79612 13.4921V2.50787C1.79612 2.3189 1.96148 2.15354 2.15045 2.15354H11.1032L13.2056 4.35039V13.4921Z" fill="#797979"/>
<path d="M10.0166 3.05118H2.48116V6.14567H10.0166V3.05118Z" fill="#797979"/>
<path d="M7.5599 8.22441C6.3788 8.22441 5.41029 9.19291 5.41029 10.374C5.41029 11.5551 6.3788 12.5236 7.5599 12.5236C8.741 12.5236 9.70951 11.5551 9.70951 10.374C9.70951 9.19291 8.741 8.22441 7.5599 8.22441Z" fill="#797979"/>
</svg>
