<svg width="26" height="26" viewBox="0 0 26 26" fill="none" xmlns="http://www.w3.org/2000/svg">
<path fill-rule="evenodd" clip-rule="evenodd" d="M17.8966 6.12731C21.1466 9.37731 21.1466 14.6466 17.8966 17.8966C14.6466 21.1466 9.3773 21.1466 6.1273 17.8966C2.87729 14.6466 2.87729 9.37731 6.1273 6.12731C9.3773 2.8773 14.6466 2.8773 17.8966 6.12731ZM21.0097 18.8867C24.4102 14.4476 24.0796 8.06769 20.0179 4.00599C15.5964 -0.415595 8.42756 -0.415594 4.00598 4.00599C-0.415602 8.42756 -0.415602 15.5964 4.00598 20.0179C8.06827 24.0802 14.4495 24.4103 18.8886 21.0082L23.3969 25.5165L25.5182 23.3952L21.0097 18.8867Z" fill="#FFF"/>
</svg>
