<svg width="15" height="15" viewBox="0 0 15 15" fill="none" xmlns="http://www.w3.org/2000/svg">
<path d="M7.5 0C3.36429 0 0 3.36429 0 7.5C0 11.6357 3.36429 15 7.5 15C11.6357 15 15 11.6357 15 7.5C15 3.36429 11.6357 0 7.5 0ZM7.5 13.2857C4.30714 13.2857 1.71429 10.6929 1.71429 7.5C1.71429 4.30714 4.30714 1.71429 7.5 1.71429C10.6929 1.71429 13.2857 4.30714 13.2857 7.5C13.2857 10.6929 10.6929 13.2857 7.5 13.2857Z" fill="#797979"/>
<path d="M7.5 7.92857L5.14286 5.57143L4.07143 6.64286L7.5 10.0714L10.9286 6.64286L9.85714 5.57143L7.5 7.92857Z" fill="#797979"/>
</svg>
