<svg width="17" height="19" viewBox="0 0 17 19" fill="none" xmlns="http://www.w3.org/2000/svg">
<path d="M14.2901 13.0941C13.625 13.0941 13.0164 13.3355 12.5438 13.7361L6.03619 9.92759C6.067 9.76067 6.08498 9.59117 6.08498 9.41397C6.08498 9.24961 6.067 9.09038 6.03875 8.93373L12.5156 5.24847C12.9907 5.65937 13.607 5.91104 14.285 5.91104C15.7797 5.91104 16.9892 4.69889 16.9892 3.20681C16.9892 1.71472 15.7822 0.5 14.2901 0.5C12.7981 0.5 11.5859 1.71216 11.5859 3.20424C11.5859 3.3686 11.6039 3.52782 11.6321 3.68448L5.15532 7.36974C4.68021 6.95884 4.06386 6.70716 3.38588 6.70716C1.89123 6.70716 0.681641 7.91932 0.681641 9.4114C0.681641 10.9035 1.8938 12.1156 3.38588 12.1156C4.05102 12.1156 4.65967 11.8742 5.13221 11.4736L11.6398 15.2821C11.609 15.4491 11.591 15.6186 11.591 15.7958C11.591 17.2904 12.8032 18.5 14.2953 18.5C15.7874 18.5 16.9995 17.2878 16.9995 15.7958C16.9995 14.3037 15.7874 13.0915 14.2953 13.0915L14.2901 13.0941ZM14.2901 2.29769C14.7909 2.29769 15.1967 2.70345 15.1967 3.20424C15.1967 3.70502 14.7909 4.11079 14.2901 4.11079C13.7894 4.11079 13.3836 3.70502 13.3836 3.20424C13.3836 2.70345 13.7894 2.29769 14.2901 2.29769ZM3.38074 10.3205C2.87996 10.3205 2.47419 9.91475 2.47419 9.41397C2.47419 8.91318 2.87996 8.50742 3.38074 8.50742C3.88153 8.50742 4.28729 8.91318 4.28729 9.41397C4.28729 9.91475 3.88153 10.3205 3.38074 10.3205ZM14.2876 16.7049C13.7868 16.7049 13.381 16.2991 13.381 15.7983C13.381 15.2975 13.7868 14.8918 14.2876 14.8918C14.7884 14.8918 15.1941 15.2975 15.1941 15.7983C15.1941 16.2991 14.7884 16.7049 14.2876 16.7049Z" fill="#797979"/>
</svg>
