<svg width="15" height="16" viewBox="0 0 15 16" fill="none" xmlns="http://www.w3.org/2000/svg">
<path d="M11.8404 10.9951C11.2861 10.9951 10.7789 11.1962 10.3851 11.5301L4.96212 8.35633C4.9878 8.21722 5.00278 8.07597 5.00278 7.92831C5.00278 7.79134 4.9878 7.65865 4.96426 7.52811L10.3616 4.45706C10.7575 4.79947 11.2712 5.0092 11.8361 5.0092C13.0817 5.0092 14.0897 3.99907 14.0897 2.75567C14.0897 1.51227 13.0838 0.5 11.8404 0.5C10.597 0.5 9.58689 1.51013 9.58689 2.75353C9.58689 2.8905 9.60187 3.02318 9.62541 3.15373L4.22806 6.22478C3.83214 5.88237 3.31852 5.67264 2.75353 5.67264C1.50799 5.67264 0.5 6.68277 0.5 7.92617C0.5 9.16957 1.51013 10.1797 2.75353 10.1797C3.30782 10.1797 3.81502 9.97853 4.2088 9.64467L9.63183 12.8184C9.60615 12.9576 9.59117 13.0988 9.59117 13.2465C9.59117 14.492 10.6013 15.5 11.8447 15.5C13.0881 15.5 14.0982 14.4899 14.0982 13.2465C14.0982 12.0031 13.0881 10.9929 11.8447 10.9929L11.8404 10.9951ZM11.8404 1.99807C12.2577 1.99807 12.5959 2.33621 12.5959 2.75353C12.5959 3.17085 12.2577 3.50899 11.8404 3.50899C11.4231 3.50899 11.085 3.17085 11.085 2.75353C11.085 2.33621 11.4231 1.99807 11.8404 1.99807ZM2.74925 8.68376C2.33193 8.68376 1.99379 8.34563 1.99379 7.92831C1.99379 7.51099 2.33193 7.17285 2.74925 7.17285C3.16657 7.17285 3.50471 7.51099 3.50471 7.92831C3.50471 8.34563 3.16657 8.68376 2.74925 8.68376ZM11.8383 14.0041C11.421 14.0041 11.0828 13.6659 11.0828 13.2486C11.0828 12.8313 11.421 12.4932 11.8383 12.4932C12.2556 12.4932 12.5937 12.8313 12.5937 13.2486C12.5937 13.6659 12.2556 14.0041 11.8383 14.0041Z" fill="#FF664A"/>
</svg>
