<svg width="26" height="25" viewBox="0 0 26 25" fill="none" xmlns="http://www.w3.org/2000/svg">
<path d="M20.6154 0H4.42308C2 0 0 2 0 4.42308V20.5769C0 23 2 25 4.42308 25H20.6154C23.0385 25 25.0385 23 25.0385 20.5769V4.42308C25.0769 2 23.0769 0 20.6154 0ZM20.6154 21.9231H4.42308C3.69231 21.9231 3.07692 21.3077 3.07692 20.5769V5.88462H22V20.5769C22 21.3077 21.3462 21.9231 20.6154 21.9231Z" fill="white"/>
<path d="M12.4615 8.38461C7.80769 8.38461 4.03846 13.7692 4.03846 13.7692C4.03846 13.7692 7.80769 19.1538 12.4615 19.1538C17.1154 19.1538 20.8846 13.7692 20.8846 13.7692C20.8846 13.7692 17.1154 8.38461 12.4615 8.38461ZM12.4615 17.1923C10.1538 17.1923 7.84615 15.2308 6.5 13.7308C7.84615 12.2692 10.1538 10.2692 12.4615 10.2692C14.7692 10.2692 17.0769 12.2308 18.3846 13.7308C17.1923 15.0769 14.8846 17.1923 12.4615 17.1923Z" fill="white"/>
<path d="M12.3846 11.7692C11.3846 11.7692 10.5385 12.5769 10.5385 13.6154C10.5385 14.6154 11.3462 15.4615 12.3846 15.4615C13.3846 15.4615 14.2308 14.6538 14.2308 13.6154C14.1923 12.6154 13.3846 11.7692 12.3846 11.7692Z" fill="white"/>
</svg>
