<svg width="29" height="25" viewBox="0 0 29 25" fill="none" xmlns="http://www.w3.org/2000/svg">
<path d="M17.7925 1.73179C17.7925 0.775351 17.0171 0 16.0607 0H1.73179C0.77535 0 0 0.775351 0 1.73179C0 2.68824 0.775351 3.46359 1.73179 3.46359H16.0607C17.0171 3.46359 17.7925 2.68824 17.7925 1.73179Z" fill="#797979"/>
<path d="M17.7925 7.94849C17.7925 6.99205 17.0171 6.2167 16.0607 6.2167H1.73179C0.77535 6.2167 0 6.99205 0 7.94849C0 8.90493 0.775351 9.68028 1.73179 9.68028H16.0607C17.0171 9.68028 17.7925 8.90493 17.7925 7.94849Z" fill="#797979"/>
<path d="M11.0817 14.1652C11.0817 13.2087 10.3063 12.4334 9.34988 12.4334H1.73179C0.77535 12.4334 0 13.2087 0 14.1652C0 15.1216 0.775353 15.897 1.7318 15.897H9.34989C10.3063 15.897 11.0817 15.1216 11.0817 14.1652Z" fill="#797979"/>
<path d="M27.638 13.1439L26.181 11.6785C25.7395 11.1901 25.1214 10.968 24.5033 10.968C23.8852 10.968 23.2671 11.1901 22.8256 11.6785L15.3896 19.1574C14.7512 19.7995 14.3929 20.6762 14.3929 21.5816C14.3929 23.4587 15.9146 25 17.7917 25C18.6965 25 19.564 24.6392 20.202 23.9976L27.638 16.5187C28.5651 15.5861 28.5651 14.0764 27.638 13.1439ZM18.6256 22.4303C18.4032 22.654 18.1008 22.7798 17.7853 22.7798C17.1309 22.7798 16.6004 22.2493 16.6004 21.5948V21.5537C16.6004 21.2298 16.7286 20.919 16.957 20.6893L20.4586 17.1676C20.9342 16.6892 21.7097 16.6943 22.1791 17.1787C22.6362 17.6506 22.6313 18.4015 22.1681 18.8673L18.6256 22.4303Z" fill="#797979"/>
</svg>
