<svg width="124" height="105" viewBox="0 0 124 105" fill="none" xmlns="http://www.w3.org/2000/svg">
<path d="M80.0227 70.7468V101.991H3V42.0858H36.3607M18.3927 94.1803L31.2397 81.1717L44.0867 94.1803M38.936 88.9828L54.3287 73.3305L69.751 88.9828M105.687 52.5107H110.808M31.2397 62.9356C31.2397 67.2496 27.7939 70.7468 23.5433 70.7468C19.2928 70.7468 15.847 67.2496 15.847 62.9356C15.847 58.6216 19.2928 55.1245 23.5433 55.1245C27.7939 55.1245 31.2397 58.6216 31.2397 62.9356ZM103.112 13.4249L95.4154 3H69.751L62.2027 13.4249H49.2077C47.8495 13.4249 46.547 13.9725 45.5866 14.9472C44.6262 15.9219 44.0867 17.2439 44.0867 18.6223V57.6781C44.0587 58.3781 44.1705 59.0767 44.4154 59.7317C44.6602 60.3868 45.033 60.9848 45.5113 61.49C45.9896 61.9951 46.5637 62.3968 47.1989 62.6711C47.8341 62.9453 48.5174 63.0864 49.2077 63.0858H115.959C117.32 63.0779 118.622 62.5236 119.582 61.5442C120.541 60.5647 121.08 59.2396 121.08 57.8584V18.6223C121.072 17.2463 120.53 15.9289 119.571 14.9559C118.613 13.9829 117.314 13.4328 115.959 13.4249H103.112ZM97.9611 36.8584C97.9611 45.4863 91.0695 52.4807 82.5684 52.4807C74.0672 52.4807 67.1757 45.4863 67.1757 36.8584C67.1757 28.2304 74.0672 21.2361 82.5684 21.2361C91.0695 21.2361 97.9611 28.2304 97.9611 36.8584Z" stroke="#BEBEBE" stroke-width="5" stroke-linecap="round" stroke-linejoin="round"/>
</svg>
